<?xml version="1.0" encoding="UTF-8" standalone="no"?><!-- Generator: Gravit.io --><svg xmlns="http://www.w3.org/2000/svg" xmlns:xlink="http://www.w3.org/1999/xlink" style="isolation:isolate" viewBox="0 0 396 64" width="396pt" height="64pt"><path d=" M 0 42.667 L 0 21.333 L 21.333 42.667 L 21.333 64 L 0 42.667 Z " fill="rgb(57,62,70)"/><path d=" M 21.333 21.333 L 21.333 0 L 0 21.333 L 0 42.667 L 21.333 21.333 Z " fill="rgb(34,40,49)"/><path d=" M 42.667 21.333 L 42.667 0 L 64 21.333 L 64 42.667 L 42.667 21.333 Z " fill="rgb(57,62,70)"/><path d=" M 64 42.667 L 64 21.333 L 42.667 42.667 L 42.667 64 L 64 42.667 Z " fill="rgb(34,40,49)"/><path d=" M 42.667 42.667 L 21.333 64 L 21.333 21.333 L 42.667 0 L 42.667 42.667 Z " fill="rgb(34,40,49)"/><path d=" M 106.203 43.326 L 106.203 49.699 L 88.922 49.699 L 88.922 49.699 Q 87.599 49.699 86.03 49.233 L 86.03 49.233 L 86.03 49.233 Q 84.461 48.768 83.125 47.701 L 83.125 47.701 L 83.125 47.701 Q 81.789 46.635 80.895 44.931 L 80.895 44.931 L 80.895 44.931 Q 80 43.228 80 40.752 L 80 40.752 L 80 32.124 L 80 32.124 Q 80 31.217 80.208 30.212 L 80.208 30.212 L 80.208 30.212 Q 80.417 29.207 80.858 28.214 L 80.858 28.214 L 80.858 28.214 Q 81.299 27.222 81.998 26.315 L 81.998 26.315 L 81.998 26.315 Q 82.696 25.408 83.689 24.722 L 83.689 24.722 L 83.689 24.722 Q 84.682 24.035 85.981 23.619 L 85.981 23.619 L 85.981 23.619 Q 87.28 23.202 88.922 23.202 L 88.922 23.202 L 106.203 23.202 L 106.203 29.575 L 88.922 29.575 L 88.922 29.575 Q 87.672 29.575 87.023 30.212 L 87.023 30.212 L 87.023 30.212 Q 86.373 30.849 86.373 32.173 L 86.373 32.173 L 86.373 40.752 L 86.373 40.752 Q 86.373 42.002 87.035 42.664 L 87.035 42.664 L 87.035 42.664 Q 87.697 43.326 88.971 43.326 L 88.971 43.326 L 106.203 43.326 Z  M 140.103 32.124 L 140.103 40.752 L 140.103 40.752 Q 140.103 42.394 139.686 43.706 L 139.686 43.706 L 139.686 43.706 Q 139.269 45.017 138.583 46.01 L 138.583 46.01 L 138.583 46.01 Q 137.897 47.003 136.99 47.701 L 136.99 47.701 L 136.99 47.701 Q 136.083 48.4 135.09 48.841 L 135.09 48.841 L 135.09 48.841 Q 134.097 49.282 133.08 49.491 L 133.08 49.491 L 133.08 49.491 Q 132.063 49.699 131.156 49.699 L 131.156 49.699 L 119.66 49.699 L 119.66 49.699 Q 118.336 49.699 116.768 49.233 L 116.768 49.233 L 116.768 49.233 Q 115.199 48.768 113.863 47.701 L 113.863 47.701 L 113.863 47.701 Q 112.527 46.635 111.632 44.931 L 111.632 44.931 L 111.632 44.931 Q 110.738 43.228 110.738 40.752 L 110.738 40.752 L 110.738 32.124 L 110.738 32.124 Q 110.738 29.673 111.632 27.969 L 111.632 27.969 L 111.632 27.969 Q 112.527 26.266 113.863 25.2 L 113.863 25.2 L 113.863 25.2 Q 115.199 24.133 116.768 23.668 L 116.768 23.668 L 116.768 23.668 Q 118.336 23.202 119.66 23.202 L 119.66 23.202 L 131.156 23.202 L 131.156 23.202 Q 133.607 23.202 135.323 24.084 L 135.323 24.084 L 135.323 24.084 Q 137.039 24.967 138.093 26.303 L 138.093 26.303 L 138.093 26.303 Q 139.147 27.638 139.625 29.207 L 139.625 29.207 L 139.625 29.207 Q 140.103 30.776 140.103 32.124 L 140.103 32.124 Z  M 133.73 40.752 L 133.73 32.173 L 133.73 32.173 Q 133.73 30.849 133.068 30.212 L 133.068 30.212 L 133.068 30.212 Q 132.406 29.575 131.156 29.575 L 131.156 29.575 L 119.709 29.575 L 119.709 29.575 Q 118.434 29.575 117.773 30.224 L 117.773 30.224 L 117.773 30.224 Q 117.111 30.874 117.111 32.124 L 117.111 32.124 L 117.111 40.752 L 117.111 40.752 Q 117.111 42.002 117.773 42.664 L 117.773 42.664 L 117.773 42.664 Q 118.434 43.326 119.709 43.326 L 119.709 43.326 L 131.156 43.326 L 131.156 43.326 Q 132.455 43.326 133.092 42.664 L 133.092 42.664 L 133.092 42.664 Q 133.73 42.002 133.73 40.752 L 133.73 40.752 Z  M 174.591 12 L 174.591 40.752 L 174.591 40.752 Q 174.591 42.394 174.174 43.706 L 174.174 43.706 L 174.174 43.706 Q 173.757 45.017 173.071 46.01 L 173.071 46.01 L 173.071 46.01 Q 172.385 47.003 171.478 47.701 L 171.478 47.701 L 171.478 47.701 Q 170.571 48.4 169.578 48.841 L 169.578 48.841 L 169.578 48.841 Q 168.585 49.282 167.568 49.491 L 167.568 49.491 L 167.568 49.491 Q 166.551 49.699 165.644 49.699 L 165.644 49.699 L 154.148 49.699 L 154.148 49.699 Q 152.506 49.699 151.206 49.282 L 151.206 49.282 L 151.206 49.282 Q 149.907 48.866 148.915 48.167 L 148.915 48.167 L 148.915 48.167 Q 147.922 47.468 147.223 46.561 L 147.223 46.561 L 147.223 46.561 Q 146.525 45.655 146.083 44.662 L 146.083 44.662 L 146.083 44.662 Q 145.642 43.669 145.434 42.652 L 145.434 42.652 L 145.434 42.652 Q 145.226 41.635 145.226 40.752 L 145.226 40.752 L 145.226 32.124 L 145.226 32.124 Q 145.226 29.673 146.12 27.969 L 146.12 27.969 L 146.12 27.969 Q 147.015 26.266 148.351 25.2 L 148.351 25.2 L 148.351 25.2 Q 149.687 24.133 151.255 23.668 L 151.255 23.668 L 151.255 23.668 Q 152.824 23.202 154.148 23.202 L 154.148 23.202 L 165.644 23.202 L 165.644 29.575 L 154.197 29.575 L 154.197 29.575 Q 152.922 29.575 152.26 30.224 L 152.26 30.224 L 152.26 30.224 Q 151.599 30.874 151.599 32.124 L 151.599 32.124 L 151.599 40.703 L 151.599 40.703 Q 151.599 42.002 152.248 42.664 L 152.248 42.664 L 152.248 42.664 Q 152.898 43.326 154.148 43.326 L 154.148 43.326 L 165.644 43.326 L 165.644 43.326 Q 166.943 43.326 167.58 42.664 L 167.58 42.664 L 167.58 42.664 Q 168.218 42.002 168.218 40.752 L 168.218 40.752 L 168.218 12 L 174.591 12 Z  M 209.177 31.977 L 209.177 31.977 L 209.177 31.977 Q 209.177 33.301 208.711 34.833 L 208.711 34.833 L 208.711 34.833 Q 208.245 36.365 207.203 37.676 L 207.203 37.676 L 207.203 37.676 Q 206.162 38.987 204.483 39.87 L 204.483 39.87 L 204.483 39.87 Q 202.804 40.752 200.401 40.752 L 200.401 40.752 L 188.905 40.752 L 188.905 34.698 L 200.401 34.698 L 200.401 34.698 Q 201.7 34.698 202.411 33.901 L 202.411 33.901 L 202.411 33.901 Q 203.122 33.105 203.122 31.928 L 203.122 31.928 L 203.122 31.928 Q 203.122 30.678 202.326 29.967 L 202.326 29.967 L 202.326 29.967 Q 201.529 29.256 200.401 29.256 L 200.401 29.256 L 188.905 29.256 L 188.905 29.256 Q 187.606 29.256 186.895 30.053 L 186.895 30.053 L 186.895 30.053 Q 186.185 30.849 186.185 32.026 L 186.185 32.026 L 186.185 40.924 L 186.185 40.924 Q 186.185 42.198 186.981 42.909 L 186.981 42.909 L 186.981 42.909 Q 187.778 43.62 188.954 43.62 L 188.954 43.62 L 200.401 43.62 L 200.401 49.699 L 188.905 49.699 L 188.905 49.699 Q 187.582 49.699 186.05 49.233 L 186.05 49.233 L 186.05 49.233 Q 184.518 48.768 183.206 47.726 L 183.206 47.726 L 183.206 47.726 Q 181.895 46.684 181.013 45.005 L 181.013 45.005 L 181.013 45.005 Q 180.13 43.326 180.13 40.924 L 180.13 40.924 L 180.13 31.977 L 180.13 31.977 Q 180.13 30.653 180.596 29.121 L 180.596 29.121 L 180.596 29.121 Q 181.062 27.589 182.103 26.278 L 182.103 26.278 L 182.103 26.278 Q 183.145 24.967 184.824 24.084 L 184.824 24.084 L 184.824 24.084 Q 186.503 23.202 188.905 23.202 L 188.905 23.202 L 200.401 23.202 L 200.401 23.202 Q 201.725 23.202 203.257 23.668 L 203.257 23.668 L 203.257 23.668 Q 204.789 24.133 206.1 25.175 L 206.1 25.175 L 206.1 25.175 Q 207.412 26.217 208.294 27.896 L 208.294 27.896 L 208.294 27.896 Q 209.177 29.575 209.177 31.977 Z  M 249.964 23.202 L 257.097 23.202 L 257.097 23.202 Q 255.577 26.609 253.812 29.906 L 253.812 29.906 L 253.812 29.906 Q 252.047 33.203 250.123 36.144 L 250.123 36.144 L 250.123 36.144 Q 248.199 39.085 246.189 41.573 L 246.189 41.573 L 246.189 41.573 Q 244.179 44.061 242.206 45.863 L 242.206 45.863 L 242.206 45.863 Q 240.233 47.664 238.358 48.682 L 238.358 48.682 L 238.358 48.682 Q 236.483 49.699 234.816 49.699 L 234.816 49.699 L 234.816 49.699 Q 234.129 49.699 233.541 49.454 L 233.541 49.454 L 233.541 49.454 Q 232.953 49.209 232.512 48.78 L 232.512 48.78 L 232.512 48.78 Q 232.07 48.351 231.825 47.763 L 231.825 47.763 L 231.825 47.763 Q 231.58 47.174 231.58 46.488 L 231.58 46.488 L 231.58 34.6 L 218.932 48.743 L 218.932 48.743 Q 218.442 49.233 217.866 49.466 L 217.866 49.466 L 217.866 49.466 Q 217.29 49.699 216.677 49.699 L 216.677 49.699 L 216.677 49.699 Q 216.015 49.699 215.439 49.454 L 215.439 49.454 L 215.439 49.454 Q 214.863 49.209 214.422 48.78 L 214.422 48.78 L 214.422 48.78 Q 213.981 48.351 213.723 47.763 L 213.723 47.763 L 213.723 47.763 Q 213.466 47.174 213.466 46.488 L 213.466 46.488 L 213.466 23.202 L 219.839 23.202 L 219.839 38.301 L 232.536 24.109 L 232.536 24.109 Q 233.223 23.422 234.166 23.239 L 234.166 23.239 L 234.166 23.239 Q 235.11 23.055 236.017 23.447 L 236.017 23.447 L 236.017 23.447 Q 236.924 23.815 237.451 24.611 L 237.451 24.611 L 237.451 24.611 Q 237.978 25.408 237.978 26.364 L 237.978 26.364 L 237.978 41.512 L 237.978 41.512 Q 240.037 39.527 241.704 37.321 L 241.704 37.321 L 241.704 37.321 Q 243.37 35.115 244.804 32.774 L 244.804 32.774 L 244.804 32.774 Q 246.238 30.433 247.501 28.018 L 247.501 28.018 L 247.501 28.018 Q 248.763 25.604 249.964 23.202 L 249.964 23.202 Z  M 265.774 12 L 265.774 17.76 L 259.401 17.76 L 259.401 12 L 265.774 12 Z  M 265.774 23.202 L 265.774 49.699 L 259.401 49.699 L 259.401 23.202 L 265.774 23.202 Z  M 295.972 23.202 L 295.972 29.575 L 284.844 29.575 L 284.844 49.699 L 278.398 49.699 L 278.398 29.575 L 270.113 29.575 L 270.113 23.202 L 278.398 23.202 L 278.398 14.549 L 284.844 14.549 L 284.844 23.202 L 295.972 23.202 Z  M 329.627 32.124 L 329.627 49.699 L 323.254 49.699 L 323.254 32.124 L 323.254 32.124 Q 323.254 30.874 322.617 30.224 L 322.617 30.224 L 322.617 30.224 Q 321.979 29.575 320.705 29.575 L 320.705 29.575 L 309.209 29.575 L 309.209 23.202 L 320.705 23.202 L 320.705 23.202 Q 321.612 23.202 322.617 23.41 L 322.617 23.41 L 322.617 23.41 Q 323.622 23.619 324.614 24.06 L 324.614 24.06 L 324.614 24.06 Q 325.607 24.501 326.514 25.2 L 326.514 25.2 L 326.514 25.2 Q 327.421 25.898 328.107 26.891 L 328.107 26.891 L 328.107 26.891 Q 328.794 27.884 329.21 29.183 L 329.21 29.183 L 329.21 29.183 Q 329.627 30.482 329.627 32.124 L 329.627 32.124 Z  M 306.635 12 L 306.635 49.699 L 300.262 49.699 L 300.262 12 L 306.635 12 Z  M 364.434 23.202 L 364.434 46.488 L 364.434 46.488 Q 364.434 47.174 364.188 47.763 L 364.188 47.763 L 364.188 47.763 Q 363.943 48.351 363.514 48.78 L 363.514 48.78 L 363.514 48.78 Q 363.085 49.209 362.509 49.454 L 362.509 49.454 L 362.509 49.454 Q 361.933 49.699 361.272 49.699 L 361.272 49.699 L 346.859 49.699 L 346.859 49.699 Q 345.682 49.699 344.346 49.429 L 344.346 49.429 L 344.346 49.429 Q 343.01 49.16 341.711 48.559 L 341.711 48.559 L 341.711 48.559 Q 340.412 47.959 339.199 47.039 L 339.199 47.039 L 339.199 47.039 Q 337.985 46.12 337.079 44.809 L 337.079 44.809 L 337.079 44.809 Q 336.172 43.498 335.62 41.782 L 335.62 41.782 L 335.62 41.782 Q 335.069 40.066 335.069 37.909 L 335.069 37.909 L 335.069 23.202 L 341.442 23.202 L 341.442 37.909 L 341.442 37.909 Q 341.442 39.159 341.871 40.152 L 341.871 40.152 L 341.871 40.152 Q 342.3 41.144 343.035 41.855 L 343.035 41.855 L 343.035 41.855 Q 343.77 42.566 344.763 42.946 L 344.763 42.946 L 344.763 42.946 Q 345.756 43.326 346.908 43.326 L 346.908 43.326 L 358.061 43.326 L 358.061 23.202 L 364.434 23.202 Z  M 396.029 40.752 L 396.029 40.752 L 396.029 40.752 Q 396.029 42.394 395.612 43.706 L 395.612 43.706 L 395.612 43.706 Q 395.196 45.017 394.509 46.01 L 394.509 46.01 L 394.509 46.01 Q 393.823 47.003 392.916 47.701 L 392.916 47.701 L 392.916 47.701 Q 392.009 48.4 391.016 48.841 L 391.016 48.841 L 391.016 48.841 Q 390.024 49.282 389.007 49.491 L 389.007 49.491 L 389.007 49.491 Q 387.989 49.699 387.082 49.699 L 387.082 49.699 L 369.826 49.699 L 369.826 43.326 L 387.033 43.326 L 387.033 43.326 Q 388.332 43.326 388.994 42.664 L 388.994 42.664 L 388.994 42.664 Q 389.656 42.002 389.656 40.752 L 389.656 40.752 L 389.656 40.752 Q 389.534 38.203 387.082 38.203 L 387.082 38.203 L 377.204 38.203 L 377.204 38.203 Q 375.096 38.203 373.625 37.468 L 373.625 37.468 L 373.625 37.468 Q 372.155 36.732 371.236 35.629 L 371.236 35.629 L 371.236 35.629 Q 370.316 34.526 369.912 33.252 L 369.912 33.252 L 369.912 33.252 Q 369.507 31.977 369.507 30.874 L 369.507 30.874 L 369.507 30.874 Q 369.507 28.741 370.267 27.283 L 370.267 27.283 L 370.267 27.283 Q 371.027 25.825 372.179 24.918 L 372.179 24.918 L 372.179 24.918 Q 373.331 24.011 374.679 23.606 L 374.679 23.606 L 374.679 23.606 Q 376.028 23.202 377.204 23.202 L 377.204 23.202 L 392.867 23.202 L 392.867 29.575 L 377.253 29.575 L 377.253 29.575 Q 376.763 29.575 376.481 29.685 L 376.481 29.685 L 376.481 29.685 Q 376.199 29.795 376.064 29.979 L 376.064 29.979 L 376.064 29.979 Q 375.93 30.163 375.905 30.372 L 375.905 30.372 L 375.905 30.372 Q 375.881 30.58 375.881 30.776 L 375.881 30.776 L 375.881 30.776 Q 375.905 31.168 376.028 31.389 L 376.028 31.389 L 376.028 31.389 Q 376.15 31.609 376.334 31.707 L 376.334 31.707 L 376.334 31.707 Q 376.518 31.805 376.751 31.818 L 376.751 31.818 L 376.751 31.818 Q 376.984 31.83 377.204 31.83 L 377.204 31.83 L 387.082 31.83 L 387.082 31.83 Q 389.534 31.83 391.249 32.712 L 391.249 32.712 L 391.249 32.712 Q 392.965 33.595 394.019 34.931 L 394.019 34.931 L 394.019 34.931 Q 395.073 36.267 395.551 37.835 L 395.551 37.835 L 395.551 37.835 Q 396.029 39.404 396.029 40.752 Z " fill="rgb(34,40,49)"/></svg>