<svg width="697" height="162" viewBox="0 0 697 162" fill="none" xmlns="http://www.w3.org/2000/svg">
<rect x="534" y="18" width="163" height="125" fill="#615F5F"/>
<rect y="18" width="534" height="125" fill="#B8B8B8"/>
<path d="M51.3 54.2C45.5 54.2 41.0667 56.3667 38 60.7C34.9333 65.0333 33.4 70.9667 33.4 78.5C33.4 86.1 34.8 92 37.6 96.2C40.4667 100.333 45.0333 102.4 51.3 102.4C54.2333 102.4 57.1333 102.067 60 101.4C62.9333 100.733 66.1 99.8 69.5 98.6V111.3C66.3667 112.567 63.2667 113.5 60.2 114.1C57.1333 114.7 53.7 115 49.9 115C42.5667 115 36.5 113.5 31.7 110.5C26.9667 107.433 23.4667 103.167 21.2 97.7C18.9333 92.1667 17.8 85.7333 17.8 78.4C17.8 71.2 19.1 64.8333 21.7 59.3C24.3 53.7667 28.0667 49.4333 33 46.3C38 43.1667 44.1 41.6 51.3 41.6C54.8333 41.6 58.3667 42.0667 61.9 43C65.5 43.8667 68.9333 45.0667 72.2 46.6L67.3 58.9C64.6333 57.6333 61.9333 56.5333 59.2 55.6C56.5333 54.6667 53.9 54.2 51.3 54.2ZM385.946 42.6L367.746 114H350.546L340.846 76.5C340.646 75.7667 340.379 74.6667 340.046 73.2C339.779 71.7333 339.446 70.1333 339.046 68.4C338.713 66.6667 338.413 65.0333 338.146 63.5C337.879 61.9 337.679 60.6667 337.546 59.8C337.479 60.6667 337.279 61.9 336.946 63.5C336.679 65.0333 336.379 66.6667 336.046 68.4C335.713 70.0667 335.379 71.6667 335.046 73.2C334.713 74.6667 334.446 75.8 334.246 76.6L324.646 114H307.446L289.246 42.6H304.146L313.246 81.6C313.646 83.1333 314.079 85.0667 314.546 87.4C315.013 89.7333 315.446 92.0667 315.846 94.4C316.246 96.7333 316.546 98.7 316.746 100.3C316.946 98.6333 317.246 96.6667 317.646 94.4C318.046 92.0667 318.446 89.8333 318.846 87.7C319.313 85.5 319.713 83.8 320.046 82.6L330.446 42.6H344.746L355.146 82.6C355.479 83.7333 355.846 85.4 356.246 87.6C356.713 89.8 357.146 92.0667 357.546 94.4C357.946 96.7333 358.246 98.7 358.446 100.3C358.646 98.6333 358.946 96.6667 359.346 94.4C359.746 92.0667 360.179 89.7333 360.646 87.4C361.179 85.0667 361.613 83.1333 361.946 81.6L371.046 42.6H385.946ZM621.873 88.8C621.873 93.7333 620.773 98.2 618.573 102.2C616.44 106.133 613.173 109.267 608.773 111.6C604.44 113.867 598.94 115 592.273 115C582.807 115 575.607 112.6 570.673 107.8C565.74 102.933 563.273 96.5333 563.273 88.6V42.6H578.373V86.3C578.373 92.1667 579.573 96.3 581.973 98.7C584.373 101.1 587.94 102.3 592.673 102.3C597.607 102.3 601.173 101 603.373 98.4C605.64 95.8 606.773 91.7333 606.773 86.2V42.6H621.873V88.8Z" fill="black"/>
<path d="M133.072 86.6C133.072 95.6667 130.672 102.667 125.872 107.6C121.139 112.533 114.672 115 106.472 115C101.405 115 96.8719 113.9 92.8719 111.7C88.9385 109.5 85.8385 106.3 83.5719 102.1C81.3052 97.8333 80.1719 92.6667 80.1719 86.6C80.1719 77.5333 82.5385 70.5667 87.2719 65.7C92.0052 60.8333 98.5052 58.4 106.772 58.4C111.905 58.4 116.439 59.5 120.372 61.7C124.305 63.9 127.405 67.1 129.672 71.3C131.939 75.4333 133.072 80.5333 133.072 86.6ZM95.3719 86.6C95.3719 92 96.2385 96.1 97.9719 98.9C99.7719 101.633 102.672 103 106.672 103C110.605 103 113.439 101.633 115.172 98.9C116.972 96.1 117.872 92 117.872 86.6C117.872 81.2 116.972 77.1667 115.172 74.5C113.439 71.7667 110.572 70.4 106.572 70.4C102.639 70.4 99.7719 71.7667 97.9719 74.5C96.2385 77.1667 95.3719 81.2 95.3719 86.6ZM162.686 115C156.619 115 151.653 112.633 147.786 107.9C143.986 103.1 142.086 96.0667 142.086 86.8C142.086 77.4667 144.019 70.4 147.886 65.6C151.753 60.8 156.819 58.4 163.086 58.4C167.019 58.4 170.253 59.1667 172.786 60.7C175.319 62.2333 177.319 64.1333 178.786 66.4H179.286C179.086 65.3333 178.853 63.8 178.586 61.8C178.319 59.7333 178.186 57.6333 178.186 55.5V38H193.086V114H181.686L178.786 106.9H178.186C176.719 109.167 174.753 111.1 172.286 112.7C169.819 114.233 166.619 115 162.686 115ZM167.886 103.1C172.019 103.1 174.919 101.9 176.586 99.5C178.253 97.0333 179.119 93.3667 179.186 88.5V86.9C179.186 81.5667 178.353 77.5 176.686 74.7C175.086 71.9 172.086 70.5 167.686 70.5C164.419 70.5 161.853 71.9333 159.986 74.8C158.119 77.6 157.186 81.6667 157.186 87C157.186 92.3333 158.119 96.3667 159.986 99.1C161.853 101.767 164.486 103.1 167.886 103.1ZM231.167 58.4C238.701 58.4 244.667 60.5667 249.067 64.9C253.467 69.1667 255.667 75.2667 255.667 83.2V90.4H220.467C220.601 94.6 221.834 97.9 224.167 100.3C226.567 102.7 229.867 103.9 234.067 103.9C237.601 103.9 240.801 103.567 243.667 102.9C246.534 102.167 249.501 101.067 252.567 99.6V111.1C249.901 112.433 247.067 113.4 244.067 114C241.134 114.667 237.567 115 233.367 115C227.901 115 223.067 114 218.867 112C214.667 109.933 211.367 106.833 208.967 102.7C206.567 98.5667 205.367 93.3667 205.367 87.1C205.367 80.7 206.434 75.4 208.567 71.2C210.767 66.9333 213.801 63.7333 217.667 61.6C221.534 59.4667 226.034 58.4 231.167 58.4ZM231.267 69C228.401 69 226.001 69.9333 224.067 71.8C222.201 73.6667 221.101 76.5667 220.767 80.5H241.667C241.601 77.1667 240.734 74.4333 239.067 72.3C237.401 70.1 234.801 69 231.267 69ZM401.226 38C403.426 38 405.326 38.5333 406.926 39.6C408.526 40.6 409.326 42.5 409.326 45.3C409.326 48.0333 408.526 49.9333 406.926 51C405.326 52.0667 403.426 52.6 401.226 52.6C398.959 52.6 397.026 52.0667 395.426 51C393.892 49.9333 393.126 48.0333 393.126 45.3C393.126 42.5 393.892 40.6 395.426 39.6C397.026 38.5333 398.959 38 401.226 38ZM408.626 59.4V114H393.726V59.4H408.626ZM447.195 103.1C448.861 103.1 450.461 102.933 451.995 102.6C453.528 102.267 455.061 101.867 456.595 101.4V112.5C454.995 113.167 452.995 113.733 450.595 114.2C448.261 114.733 445.695 115 442.895 115C439.628 115 436.695 114.467 434.095 113.4C431.561 112.333 429.528 110.5 427.995 107.9C426.528 105.233 425.795 101.567 425.795 96.9V70.6H418.695V64.3L426.895 59.3L431.195 47.8H440.695V59.4H455.995V70.6H440.695V96.9C440.695 98.9667 441.295 100.533 442.495 101.6C443.695 102.6 445.261 103.1 447.195 103.1ZM482.454 53.5C482.454 56.1667 482.354 58.7333 482.154 61.2C482.021 63.6667 481.887 65.4 481.754 66.4H482.554C484.287 63.6 486.521 61.5667 489.254 60.3C491.987 59.0333 495.021 58.4 498.354 58.4C504.287 58.4 509.021 60 512.554 63.2C516.154 66.3333 517.954 71.4 517.954 78.4V114H503.054V82.1C503.054 74.2333 500.121 70.3 494.254 70.3C489.787 70.3 486.687 71.8667 484.954 75C483.287 78.0667 482.454 82.5 482.454 88.3V114H467.554V38H482.454V53.5ZM676.259 97.8C676.259 103.333 674.293 107.6 670.359 110.6C666.493 113.533 660.693 115 652.959 115C649.159 115 645.893 114.733 643.159 114.2C640.426 113.733 637.693 112.933 634.959 111.8V99.5C637.893 100.833 641.059 101.933 644.459 102.8C647.859 103.667 650.859 104.1 653.459 104.1C656.393 104.1 658.459 103.667 659.659 102.8C660.926 101.933 661.559 100.8 661.559 99.4C661.559 98.4667 661.293 97.6333 660.759 96.9C660.293 96.1667 659.226 95.3333 657.559 94.4C655.893 93.4667 653.293 92.2667 649.759 90.8C646.359 89.3333 643.559 87.9 641.359 86.5C639.159 85.0333 637.526 83.3 636.459 81.3C635.393 79.2333 634.859 76.6667 634.859 73.6C634.859 68.5333 636.826 64.7333 640.759 62.2C644.693 59.6667 649.926 58.4 656.459 58.4C659.859 58.4 663.093 58.7333 666.159 59.4C669.226 60.0667 672.393 61.1667 675.659 62.7L671.159 73.4C668.493 72.2667 665.959 71.3333 663.559 70.6C661.159 69.8 658.726 69.4 656.259 69.4C651.859 69.4 649.659 70.6 649.659 73C649.659 73.8667 649.926 74.6667 650.459 75.4C651.059 76.0667 652.159 76.8 653.759 77.6C655.426 78.4 657.859 79.4667 661.059 80.8C664.193 82.0667 666.893 83.4 669.159 84.8C671.426 86.1333 673.159 87.8333 674.359 89.9C675.626 91.9 676.259 94.5333 676.259 97.8Z" fill="white"/>
</svg>
