<svg xmlns="http://www.w3.org/2000/svg" viewBox="0 0 531.23 251.92"><defs><style>.cls-1{font-size:125px;font-family:Bungee-Regular, Bungee;}.cls-2{stroke:#666;stroke-miterlimit:10;}.cls-3{font-size:50px;fill:#fff;font-family:ArialMT, Arial;}</style></defs><g id="Layer_1" data-name="Layer 1"><text class="cls-1" transform="translate(0 137.67)"><tspan xml:space="preserve"> &lt;          /&gt;</tspan></text></g><g id="Layer_2" data-name="Layer 2"><circle class="cls-2" cx="207.93" cy="39.61" r="39.11"/><path class="cls-2" d="M265.4,360.78c.21-2.74.33-5.53.33-8.37,0-39.78-21.5-72-48-72s-48,32.25-48,72c0,2.84.12,5.63.33,8.37Z" transform="translate(-8.43 -196.59)"/><circle class="cls-2" cx="321.21" cy="41.05" r="39.11"/><path class="cls-2" d="M378.68,362.22c.21-2.74.33-5.53.33-8.37,0-39.78-21.5-72-48-72s-48,32.25-48,72c0,2.84.13,5.63.34,8.37Z" transform="translate(-8.43 -196.59)"/><circle class="cls-2" cx="264.87" cy="63" r="39.11"/><path class="cls-2" d="M322.34,384.18c.21-2.75.33-5.54.33-8.37,0-39.79-21.5-72-48-72s-48,32.25-48,72c0,2.83.12,5.62.34,8.37Z" transform="translate(-8.43 -196.59)"/></g><g id="Layer_3" data-name="Layer 3"><text class="cls-3" transform="translate(188.07 57)">C</text><text class="cls-3" transform="translate(241.03 84.71)">W</text><text class="cls-3" transform="translate(303.57 59)">U</text></g></svg>